<svg id="Layer_4" enable-background="new 0 0 24 24" height="512" viewBox="0 0 24 24" width="512" xmlns="http://www.w3.org/2000/svg"><path d="m10 24c1.811 0 3.326-1.291 3.674-3h-7.348c.348 1.709 1.863 3 3.674 3z"/><g><path d="m17.25 13h-4.5c-.279 0-.535-.155-.664-.402-.13-.247-.111-.545.048-.774l3.684-5.324h-3.068c-.414 0-.75-.336-.75-.75s.336-.75.75-.75h4.5c.279 0 .535.155.664.402.13.247.111.545-.048.774l-3.684 5.324h3.068c.414 0 .75.336.75.75s-.336.75-.75.75z"/></g><g><path d="m23.25 6h-2.5c-.281 0-.538-.157-.667-.407-.129-.249-.106-.55.057-.778l1.653-2.315h-1.043c-.414 0-.75-.336-.75-.75s.336-.75.75-.75h2.5c.281 0 .538.157.667.407.129.249.106.55-.057.778l-1.653 2.315h1.043c.414 0 .75.336.75.75s-.336.75-.75.75z"/></g><path d="m19.379 16.913c-.797-.674-1.408-1.514-1.814-2.445-.104.015-.207.032-.315.032h-4.5c-.841 0-1.605-.463-1.994-1.209-.389-.739-.334-1.632.146-2.322l2.054-2.969h-.206c-1.24 0-2.25-1.01-2.25-2.25s1.01-2.25 2.25-2.25h1.561c-.941-.737-2.074-1.242-3.311-1.42v-1.08c0-.553-.448-1-1-1s-1 .447-1 1v1.08c-3.387.488-6 3.401-6 6.92v2.788c0 1.979-.867 3.847-2.388 5.133-.389.333-.612.817-.612 1.329 0 .965.785 1.75 1.75 1.75h16.5c.965 0 1.75-.785 1.75-1.75 0-.512-.223-.996-.621-1.337z"/></svg>